<svg width="629" height="142" viewBox="0 0 629 142" fill="none" xmlns="http://www.w3.org/2000/svg">
<path d="M0 30C0 13.4315 13.4315 0 30 0H97C113.569 0 127 13.4315 127 30V97C127 113.569 113.569 127 97 127H30C13.4315 127 0 113.569 0 97V30Z" fill="#FF0066"/>
<path d="M161.827 104.746H153.919V37.5302H161.827V104.746ZM199.883 60.2651C199.883 65.1416 198.862 69.3591 196.819 72.9176C194.776 76.4761 192.041 79.2108 188.615 81.1219C185.254 83.0329 181.498 83.9885 177.346 83.9885C173.59 83.9885 170.262 83.0329 167.363 81.1219C164.529 79.2108 162.288 76.4761 160.641 72.9176C159.059 69.3591 158.269 65.1416 158.269 60.2651C158.269 55.3227 159.059 51.1052 160.641 47.6126C162.288 44.0541 164.529 41.3193 167.363 39.4083C170.262 37.4972 173.59 36.5417 177.346 36.5417C181.498 36.5417 185.254 37.4972 188.615 39.4083C192.041 41.3193 194.776 44.0541 196.819 47.6126C198.862 51.1052 199.883 55.3227 199.883 60.2651ZM191.877 60.2651C191.877 56.7725 191.152 53.807 189.702 51.3688C188.318 48.9306 186.44 47.0854 184.068 45.8334C181.761 44.5813 179.191 43.9553 176.358 43.9553C174.051 43.9553 171.778 44.5813 169.537 45.8334C167.297 47.0854 165.452 48.9306 164.002 51.3688C162.552 53.807 161.827 56.7725 161.827 60.2651C161.827 63.7577 162.552 66.7231 164.002 69.1614C165.452 71.5996 167.297 73.4447 169.537 74.6968C171.778 75.9489 174.051 76.5749 176.358 76.5749C179.191 76.5749 181.761 75.9489 184.068 74.6968C186.44 73.4447 188.318 71.5996 189.702 69.1614C191.152 66.7231 191.877 63.7577 191.877 60.2651ZM218.695 65.2075C218.695 68.8319 219.519 71.6325 221.166 73.6095C222.814 75.5864 225.219 76.5749 228.382 76.5749C230.689 76.5749 232.699 76.1136 234.412 75.1911C236.191 74.2026 237.542 72.8517 238.465 71.1383C239.453 69.4249 239.947 67.448 239.947 65.2075V37.5302H247.855V83H239.947V75.883C238.432 78.5848 236.554 80.6277 234.313 82.0115C232.073 83.3295 229.437 83.9885 226.405 83.9885C221.661 83.9885 217.872 82.374 215.038 79.1449C212.204 75.9159 210.787 71.5996 210.787 66.1959V37.5302H218.695V65.2075ZM270.629 37.5302V83H262.721V37.5302H270.629ZM284.369 46.2287C283.314 45.438 282.359 44.8778 281.502 44.5483C280.645 44.1529 279.558 43.9553 278.24 43.9553C276.263 43.9553 274.715 44.4495 273.594 45.438C272.474 46.4264 271.683 47.7774 271.222 49.4907C270.827 51.2041 270.629 53.1481 270.629 55.3227H267.07C267.07 51.6983 267.696 48.5022 268.948 45.7345C270.266 42.9009 271.947 40.6603 273.99 39.0129C276.032 37.3654 278.108 36.5417 280.217 36.5417C281.864 36.5417 283.38 36.7723 284.764 37.2336C286.214 37.629 287.532 38.4527 288.718 39.7048L284.369 46.2287ZM304.017 104.746H296.109V37.5302H304.017V104.746ZM342.073 60.2651C342.073 65.1416 341.052 69.3591 339.009 72.9176C336.966 76.4761 334.231 79.2108 330.805 81.1219C327.444 83.0329 323.688 83.9885 319.536 83.9885C315.78 83.9885 312.452 83.0329 309.552 81.1219C306.719 79.2108 304.478 76.4761 302.831 72.9176C301.249 69.3591 300.458 65.1416 300.458 60.2651C300.458 55.3227 301.249 51.1052 302.831 47.6126C304.478 44.0541 306.719 41.3193 309.552 39.4083C312.452 37.4972 315.78 36.5417 319.536 36.5417C323.688 36.5417 327.444 37.4972 330.805 39.4083C334.231 41.3193 336.966 44.0541 339.009 47.6126C341.052 51.1052 342.073 55.3227 342.073 60.2651ZM334.067 60.2651C334.067 56.7725 333.342 53.807 331.892 51.3688C330.508 48.9306 328.63 47.0854 326.258 45.8334C323.951 44.5813 321.381 43.9553 318.547 43.9553C316.241 43.9553 313.968 44.5813 311.727 45.8334C309.486 47.0854 307.641 48.9306 306.192 51.3688C304.742 53.807 304.017 56.7725 304.017 60.2651C304.017 63.7577 304.742 66.7231 306.192 69.1614C307.641 71.5996 309.486 73.4447 311.727 74.6968C313.968 75.9489 316.241 76.5749 318.547 76.5749C321.381 76.5749 323.951 75.9489 326.258 74.6968C328.63 73.4447 330.508 71.5996 331.892 69.1614C333.342 66.7231 334.067 63.7577 334.067 60.2651ZM352.977 5.89898H360.885V83H352.977V5.89898ZM393.353 83.9885C389.136 83.9885 385.38 83 382.085 81.0231C378.856 78.9802 376.319 76.1795 374.473 72.621C372.694 69.0625 371.805 64.9439 371.805 60.2651C371.805 55.5204 372.727 51.3688 374.572 47.8103C376.483 44.2518 379.119 41.4841 382.48 39.5071C385.907 37.5302 389.861 36.5417 394.342 36.5417C398.823 36.5417 402.645 37.4972 405.808 39.4083C409.037 41.2534 411.508 43.9223 413.222 47.4149C414.935 50.9075 415.792 55.0591 415.792 59.8697C415.792 60.331 415.759 60.8252 415.693 61.3524C415.693 61.8137 415.693 62.1102 415.693 62.242H376.846V55.5204H409.465L406.302 60.0674C406.5 59.7379 406.698 59.2437 406.895 58.5847C407.093 57.8598 407.192 57.2667 407.192 56.8054C407.192 54.1036 406.632 51.7642 405.512 49.7873C404.457 47.8103 402.975 46.2617 401.063 45.1414C399.152 44.0212 396.912 43.461 394.342 43.461C391.311 43.461 388.708 44.12 386.533 45.438C384.424 46.69 382.777 48.5352 381.59 50.9734C380.47 53.3458 379.877 56.2782 379.811 59.7708C379.811 63.3294 380.371 66.3607 381.492 68.8648C382.612 71.3689 384.259 73.28 386.434 74.598C388.609 75.9159 391.245 76.5749 394.342 76.5749C397.439 76.5749 400.174 75.9159 402.546 74.598C404.919 73.2141 406.928 71.1383 408.576 68.3706L415.001 72.4233C412.629 76.2454 409.63 79.1449 406.006 81.1219C402.447 83.0329 398.23 83.9885 393.353 83.9885ZM455.79 55.3227C455.79 51.5665 454.966 48.7329 453.319 46.8218C451.672 44.9108 449.266 43.9553 446.103 43.9553C443.797 43.9553 441.754 44.4495 439.975 45.438C438.261 46.3605 436.91 47.6785 435.922 49.3919C434.999 51.1052 434.538 53.0822 434.538 55.3227V83H426.63V37.5302H434.538V44.6472C436.054 41.8795 437.932 39.8366 440.172 38.5186C442.479 37.2007 445.115 36.5417 448.08 36.5417C452.891 36.5417 456.68 38.1562 459.448 41.3852C462.281 44.5483 463.698 48.8647 463.698 54.3342V83H455.79V55.3227ZM478.564 18.7491C478.564 17.2335 479.091 15.9485 480.145 14.8941C481.266 13.8397 482.551 13.3125 484 13.3125C485.516 13.3125 486.801 13.8397 487.855 14.8941C488.91 15.9485 489.437 17.2335 489.437 18.7491C489.437 20.1989 488.91 21.4839 487.855 22.6042C486.801 23.6586 485.516 24.1858 484 24.1858C482.551 24.1858 481.266 23.6586 480.145 22.6042C479.091 21.4839 478.564 20.1989 478.564 18.7491ZM480.046 37.5302H487.954V83H480.046V37.5302ZM501.177 85.9654H509.183C509.183 88.1401 509.776 90.15 510.963 91.9951C512.149 93.9062 513.829 95.4218 516.004 96.5421C518.178 97.7283 520.748 98.3214 523.714 98.3214C526.02 98.3214 528.294 97.7612 530.534 96.641C532.775 95.5207 534.62 93.7414 536.07 91.3032C537.585 88.9308 538.343 85.8336 538.343 82.0115V37.5302H546.251V82.0115C546.251 87.2175 545.164 91.5668 542.989 95.0594C540.814 98.6179 538.014 101.287 534.587 103.066C531.16 104.845 527.536 105.735 523.714 105.735C519.299 105.735 515.378 104.911 511.951 103.264C508.59 101.616 505.954 99.2769 504.043 96.2456C502.132 93.2801 501.177 89.8534 501.177 85.9654ZM500.287 60.2651C500.287 55.3227 501.308 51.1052 503.351 47.6126C505.394 44.0541 508.129 41.3193 511.556 39.4083C514.982 37.4972 518.739 36.5417 522.824 36.5417C526.646 36.5417 529.974 37.4972 532.808 39.4083C535.641 41.3193 537.849 44.0541 539.431 47.6126C541.078 51.1052 541.902 55.3227 541.902 60.2651C541.902 65.1416 541.078 69.3591 539.431 72.9176C537.849 76.4761 535.641 79.2108 532.808 81.1219C529.974 83.0329 526.646 83.9885 522.824 83.9885C518.739 83.9885 514.982 83.0329 511.556 81.1219C508.129 79.2108 505.394 76.4761 503.351 72.9176C501.308 69.3591 500.287 65.1416 500.287 60.2651ZM508.294 60.2651C508.294 63.7577 508.986 66.7231 510.369 69.1614C511.819 71.5996 513.73 73.4447 516.103 74.6968C518.475 75.9489 521.045 76.5749 523.813 76.5749C526.119 76.5749 528.393 75.9489 530.633 74.6968C532.874 73.4447 534.719 71.5996 536.169 69.1614C537.618 66.7231 538.343 63.7577 538.343 60.2651C538.343 57.6292 537.915 55.3227 537.058 53.3458C536.202 51.3029 535.048 49.5896 533.599 48.2057C532.215 46.8218 530.666 45.7675 528.953 45.0426C527.239 44.3177 525.526 43.9553 523.813 43.9553C521.045 43.9553 518.475 44.5813 516.103 45.8334C513.73 47.0854 511.819 48.9306 510.369 51.3688C508.986 53.807 508.294 56.7725 508.294 60.2651ZM568.523 5.89898V83H560.615V5.89898H568.523ZM589.775 55.3227C589.775 51.5665 588.951 48.7329 587.304 46.8218C585.722 44.9108 583.317 43.9553 580.088 43.9553C577.781 43.9553 575.738 44.4495 573.959 45.438C572.246 46.4264 570.895 47.7774 569.906 49.4907C568.984 51.2041 568.523 53.1481 568.523 55.3227H565.953C565.953 51.6983 566.645 48.5022 568.028 45.7345C569.412 42.9009 571.29 40.6603 573.663 39.0129C576.101 37.3654 578.902 36.5417 582.065 36.5417C585.228 36.5417 587.963 37.2007 590.269 38.5186C592.641 39.8366 594.454 41.8136 595.706 44.4495C597.024 47.0854 597.683 50.3803 597.683 54.3342V83H589.775V55.3227ZM605.629 37.5302H628.364V44.9437H605.629V37.5302ZM613.043 21.7146H620.95V83H613.043V21.7146Z" fill="#FF0066"/>
<rect x="35" y="12" width="65.4314" height="94" rx="32.7157" fill="white"/>
<rect x="35" y="14" width="14" height="128" rx="7" fill="white"/>
<path d="M48 20.5C48 9.73045 56.7304 1 67.5 1C78.2696 1 87 9.73045 87 20.5V56.5C87 67.2696 78.2696 76 67.5 76C56.7304 76 48 67.2696 48 56.5V20.5Z" fill="#FF0066"/>
</svg>
