<svg width="32" height="32" viewBox="0 0 127 142" fill="none" xmlns="http://www.w3.org/2000/svg">
    <path d="M0 30C0 13.4315 13.4315 0 30 0H97C113.569 0 127 13.4315 127 30V97C127 113.569 113.569 127 97 127H30C13.4315 127 0 113.569 0 97V30Z" fill="#FF0066"/>
    <rect x="35" y="12" width="65.4314" height="94" rx="32.7157" fill="white"/>
    <rect x="35" y="14" width="14" height="128" rx="7" fill="white"/>
    <path d="M48 20.5C48 9.73045 56.7304 1 67.5 1V1C78.2696 1 87 9.73045 87 20.5V56.5C87 67.2696 78.2696 76 67.5 76V76C56.7304 76 48 67.2696 48 56.5V20.5Z" fill="#FF0066"/>
</svg>
